<svg id="Cappuccino" xmlns="http://www.w3.org/2000/svg" xmlns:xlink="http://www.w3.org/1999/xlink" width="60.69" height="46.345" viewBox="0 0 60.69 46.345">
  <defs>
    <clipPath id="clip-path">
      <path id="Clip_3" data-name="Clip 3" d="M0,0H60.556V46.26H0Z" fill="none"/>
    </clipPath>
  </defs>
  <g id="Group" transform="translate(0.008 0.085)">
    <path id="Fill_1" data-name="Fill 1" d="M3.848,8.39,0,0H51.155L47.194,8.39H3.848" transform="translate(1.123 36.736)" fill="#fde9da"/>
    <g id="Group_5" data-name="Group 5">
      <path id="Clip_3-2" data-name="Clip 3" d="M0,0H60.556V46.26H0Z" fill="none"/>
      <g id="Group_5-2" data-name="Group 5" clip-path="url(#clip-path)">
        <path id="Fill_2" data-name="Fill 2" d="M6.227,35.715c-3.848,0-5.772-4.875-6-6.8-.453-6.349-.113-22.79,0-27.779V0h42.78V1.134c.113,4.875.453,21.429,0,27.779-.113,1.927-2.15,6.8-6,6.8H6.227" transform="translate(4.969 1.02)" fill="#b98875"/>
        <path id="Fill_4" data-name="Fill 4" d="M48.439,46.26H5.093a1.089,1.089,0,0,1-1.018-.68L.113,37.19A.689.689,0,0,1,0,36.736,1.073,1.073,0,0,1,1.132,35.6H6.564a10.307,10.307,0,0,1-2.49-5.555c-.486-6.329-.142-22.219-.029-27.44.018-.809.029-1.344.029-1.472A1.072,1.072,0,0,1,5.206,0H48.1a1.073,1.073,0,0,1,1.132,1.134c0,.051.006.183.014.383.03.679.1,2.267.1,4.379a11.9,11.9,0,0,1,7.809,3.5,11.719,11.719,0,0,1,3.4,7.838A11.738,11.738,0,0,1,49.231,29.592v.454a10.321,10.321,0,0,1-2.49,5.555h5.545a1.234,1.234,0,0,1,.565.113,1.122,1.122,0,0,1,.566,1.475l-3.96,8.39A1.092,1.092,0,0,1,48.439,46.26ZM2.829,37.87l2.943,6.122H47.646l2.829-6.122Zm3.509-35.6c-.021.837-.506,20.574,0,27.666a8.932,8.932,0,0,0,1.415,3.472A4.388,4.388,0,0,0,11.2,35.6H42.1c2.962,0,4.753-3.973,4.866-5.669.506-7.092.021-26.829,0-27.666Zm43.006,5.9c.174,8.887.174,15.155,0,19.162A9.59,9.59,0,0,0,58.4,18.254,9.469,9.469,0,0,0,49.344,8.163Z" transform="translate(-0.008 0)" fill="#231514"/>
      </g>
    </g>
  </g>
</svg>
