<svg xmlns="http://www.w3.org/2000/svg" width="26.483" height="26.483" viewBox="0 0 26.483 26.483">
  <path id="Fill_1" data-name="Fill 1" d="M20.731,26.483H5.751a1.1,1.1,0,0,1-1.1-.98L2.714,8.276H1.1A1.1,1.1,0,0,1,0,7.172V5.245A2.723,2.723,0,0,1,2.146,2.594l.07-.25A3.1,3.1,0,0,1,5.224,0H21.258a3.1,3.1,0,0,1,3.009,2.344l.069.246a2.715,2.715,0,0,1,2.147,2.655V7.172a1.1,1.1,0,0,1-1.1,1.1H23.769L21.828,25.5A1.1,1.1,0,0,1,20.731,26.483ZM6.055,19.448l.559,4.966H19.869l.559-4.966H16.9a4.468,4.468,0,0,1-7.259,0H6.055Zm7.212-6.155a2.814,2.814,0,0,0-2.612,2.974,2.814,2.814,0,0,0,2.612,2.974,2.814,2.814,0,0,0,2.613-2.974A2.814,2.814,0,0,0,13.267,13.293Zm4.6,2.018a5.413,5.413,0,0,1-.03,2.069h2.828l.232-2.069Zm-12.275,0,.233,2.069H8.7a5.442,5.442,0,0,1-.031-2.069H5.588Zm7.679-4.087a4.546,4.546,0,0,1,3.743,2.017h4.117l.56-4.966H4.8l.559,4.966h4.17A4.546,4.546,0,0,1,13.267,11.224ZM2.71,4.6a.642.642,0,0,0-.642.642v.742a.221.221,0,0,0,.221.22h21.9a.221.221,0,0,0,.22-.22V5.245a.625.625,0,0,0-.621-.642H22.748l-.485-1.748a1.035,1.035,0,0,0-1.005-.787H5.224a1.032,1.032,0,0,0-1,.787l-.008.03L3.734,4.6Z" fill="#c28e79"/>
</svg>
