<svg id="Espresso" xmlns="http://www.w3.org/2000/svg" xmlns:xlink="http://www.w3.org/1999/xlink" width="55.172" height="56.276" viewBox="0 0 55.172 56.276">
  <defs>
    <clipPath id="clip-path">
      <path id="Clip_2" data-name="Clip 2" d="M0,0H55.134V32.355H0Z" fill="none"/>
    </clipPath>
  </defs>
  <g id="Group" transform="translate(0 0.028)">
    <g id="Group_4" data-name="Group 4" transform="translate(0 23.181)">
      <path id="Clip_2-2" data-name="Clip 2" d="M0,0H55.134V32.355H0Z" transform="translate(0 0)" fill="none"/>
      <g id="Group_4-2" data-name="Group 4" transform="translate(0 0)" clip-path="url(#clip-path)">
        <path id="Fill_1" data-name="Fill 1" d="M21.343,30.124C9.61,30.124,0,18.813,0,4.927V0H42.574V4.927c0,13.886-9.5,25.2-21.231,25.2" transform="translate(1.117 1.12)" fill="#b98875"/>
        <path id="Fill_3" data-name="Fill 3" d="M22.46,32.363a20.8,20.8,0,0,1-15.881-7.7A28.579,28.579,0,0,1,0,6.047V1.12A1.059,1.059,0,0,1,1.117,0H48.5a6.765,6.765,0,0,1,5.139,2.687,8.655,8.655,0,0,1,1.4,3.514,8.273,8.273,0,0,1-.279,3.766A13.033,13.033,0,0,1,48.9,17.344a17.661,17.661,0,0,1-7.445,2.59,24.682,24.682,0,0,1-7.948,8.986A19.811,19.811,0,0,1,22.46,32.363ZM2.234,2.239V6.047c0,13.276,9.023,24.077,20.114,24.077,11.152,0,20.225-10.8,20.225-24.077V2.239Zm42.574.112V6.159a30.7,30.7,0,0,1-2.235,11.423c3.06-.671,8.624-3.147,10.057-8.175a5.813,5.813,0,0,0-.67-5.263A4.28,4.28,0,0,0,48.5,2.352Z" transform="translate(0 0)" fill="#231514"/>
      </g>
    </g>
    <path id="Fill_5" data-name="Fill 5" d="M1.117,14.222A1.057,1.057,0,0,0,2.235,13.1V1.12A1.057,1.057,0,0,0,1.117,0,1.057,1.057,0,0,0,0,1.12V13.1a1.121,1.121,0,0,0,1.117,1.12" transform="translate(17.543 6.495)" fill="#231514"/>
    <path id="Fill_6" data-name="Fill 6" d="M1.117,20.717A1.057,1.057,0,0,0,2.235,19.6V1.12A1.057,1.057,0,0,0,1.117,0,1.057,1.057,0,0,0,0,1.12V19.6a1.2,1.2,0,0,0,1.117,1.12" transform="translate(25.03)" fill="#231514"/>
  </g>
</svg>
