<svg xmlns="http://www.w3.org/2000/svg" width="25.24" height="25.798" viewBox="0 0 25.24 25.798">
  <path id="home" d="M15.674,23.694h3.094a.982.982,0,0,0,.982-.982V11.466h2.794a.656.656,0,0,0,.448-1.13L12.317.286a1.052,1.052,0,0,0-1.441,0L.2,10.335a.656.656,0,0,0,.448,1.13H3.445V22.712a.982.982,0,0,0,.982.982H7.522a1.112,1.112,0,0,0,1.112-1.112v-6.3a.741.741,0,0,1,.741-.741h4.447a.741.741,0,0,1,.741.741v6.3A1.112,1.112,0,0,0,15.674,23.694Z" transform="translate(1.022 1.104)" fill="none" stroke="#cf9775" stroke-miterlimit="10" stroke-width="2"/>
</svg>
