<svg id="latte" xmlns="http://www.w3.org/2000/svg" xmlns:xlink="http://www.w3.org/1999/xlink" width="45.241" height="65.103" viewBox="0 0 45.241 65.103">
  <defs>
    <clipPath id="clip-path">
      <path id="Clip_4" data-name="Clip 4" d="M0,0H45.183V65.053H0Z" fill="none"/>
    </clipPath>
  </defs>
  <g id="latte-2" data-name="latte" transform="translate(0.008 0.051)">
    <path id="Fill_1" data-name="Fill 1" d="M0,10.121V8.984A5.187,5.187,0,0,1,5.17,3.753a5.039,5.039,0,0,1,1.8.341C7.756,1.706,10.566,0,13.825,0s6.07,1.706,6.744,4.094a4.465,4.465,0,0,1,1.686-.341,5.359,5.359,0,0,1,5.283,5.231v1.137H0" transform="translate(3.102 1.143)" fill="#c69a80"/>
    <path id="Fill_2" data-name="Fill 2" d="M15.624,27.633a10.68,10.68,0,0,1-8.318-3.98Q1.405,17.171.225,1.137L0,0H31.023L30.91,1.251q-1.349,16.034-7.081,22.516a10.538,10.538,0,0,1-8.205,3.866" transform="translate(1.304 23.318)" fill="#cf9775"/>
    <g id="Group_6" data-name="Group 6">
      <path id="Clip_4-2" data-name="Clip 4" d="M0,0H45.183V65.053H0Z" fill="none"/>
      <g id="Group_6-2" data-name="Group 6" clip-path="url(#clip-path)">
        <path id="Fill_3" data-name="Fill 3" d="M.253,12.282.141,11.144C-.084,6.709.028,2.957.028,1.137V0H31.276V1.137a76.433,76.433,0,0,1-.112,10.007v1.137H.253" transform="translate(1.051 11.037)" fill="#fde9da"/>
        <path id="Fill_5" data-name="Fill 5" d="M27.95,65.052H7.157a1.137,1.137,0,0,1,0-2.274H13V51.52a14.344,14.344,0,0,1-5.282-3.639A25.849,25.849,0,0,1,2.59,37.921a62.281,62.281,0,0,1-2.178-11.9A94.78,94.78,0,0,1,.187,11.151a1.106,1.106,0,0,1,1.124-1.024h.674A6.644,6.644,0,0,1,3.925,5.621,6.286,6.286,0,0,1,8.393,3.759a3.818,3.818,0,0,1,1.124.113A8.313,8.313,0,0,1,16.611,0c.108,0,.217,0,.325.006S17.145,0,17.25,0a8.435,8.435,0,0,1,7.1,3.872,3.1,3.1,0,0,1,1.011-.113,6.386,6.386,0,0,1,4.51,1.862,6.293,6.293,0,0,1,1.9,4.506h.788a1.106,1.106,0,0,1,1.124,1.024c0,.078.006.277.015.579.032,1.059.1,3.262.1,6.243l.26-.044a9.288,9.288,0,0,1,1.651-.183,10.066,10.066,0,0,1,3.934.8,9.454,9.454,0,0,1,4.932,5.331A9.515,9.515,0,0,1,35.727,36.78a9.169,9.169,0,0,1-3.842-.839c-1.223,5.07-3.114,9.087-5.62,11.94a12.112,12.112,0,0,1-5.283,3.639V62.778H27.95a1.137,1.137,0,0,1,0,2.274Zm-12.7-13.077v10.69h3.372V51.975h-.015a8.248,8.248,0,0,0-.829.056,9.374,9.374,0,0,1-2.528-.057ZM2.66,24.455h0c.517,7.112,2.107,16.672,6.745,21.834a6.446,6.446,0,0,0,1.236,1.25,9.728,9.728,0,0,0,13.825-1.25c3.64-4.051,5.946-11.4,6.856-21.834H2.66Zm33.134-4.5a7.005,7.005,0,0,0-2,.293,73.584,73.584,0,0,1-1.462,13.306,6.83,6.83,0,0,0,3.373.91,6.187,6.187,0,0,0,2.023-.227,7.291,7.291,0,0,0-1.935-14.281ZM2.323,12.288c0,.353,0,.8-.01,1.31-.022,2.019-.055,5.067.123,8.583H31.323a74.935,74.935,0,0,0,.112-9.893H2.323ZM8.393,5.92a4.131,4.131,0,0,0-4.159,4.094h25.4A4.23,4.23,0,0,0,25.477,5.92a5.573,5.573,0,0,0-1.349.227,1.3,1.3,0,0,1-.415.071,1.127,1.127,0,0,1-1.046-.753A4.208,4.208,0,0,0,20.6,3.091a7.528,7.528,0,0,0-3.667-.924c-2.779,0-5.19,1.435-5.733,3.411a1.162,1.162,0,0,1-.562.682,1.554,1.554,0,0,1-.491.086.906.906,0,0,1-.407-.086A2.979,2.979,0,0,0,8.393,5.92Z" transform="translate(-0.008 0)" fill="#231514"/>
      </g>
    </g>
  </g>
</svg>
