<svg xmlns="http://www.w3.org/2000/svg" width="24.002" height="28.954" viewBox="0 0 24.002 28.954">
  <path id="Fill_1" data-name="Fill 1" d="M11,26.954a.8.8,0,0,1-.49-.17c-5.71-4.5-8.321-8.718-9.506-11.459a10.543,10.543,0,0,1-.736-2.13C.223,12.983.2,12.868.2,12.833A10.475,10.475,0,0,1,0,10.8,10.913,10.913,0,0,1,11,0,10.933,10.933,0,0,1,22,10.8a10.96,10.96,0,0,1-.195,2.029c-.006.036-.028.154-.075.361A10.411,10.411,0,0,1,21,15.325c-1.183,2.737-3.793,6.948-9.506,11.459A.784.784,0,0,1,11,26.954ZM11,5.588a5.335,5.335,0,1,0,5.429,5.335A5.388,5.388,0,0,0,11,5.588Z" transform="translate(1 1)" fill="none" stroke="#cf9775" stroke-miterlimit="10" stroke-width="2"/>
</svg>
