<svg id="Mocha" xmlns="http://www.w3.org/2000/svg" xmlns:xlink="http://www.w3.org/1999/xlink" width="38.621" height="61.793" viewBox="0 0 38.621 61.793">
  <defs>
    <clipPath id="clip-path">
      <path id="Clip_4" data-name="Clip 4" d="M0,0H38.472V61.7H0Z" fill="none"/>
    </clipPath>
  </defs>
  <g id="Group" transform="translate(0.008 0.096)">
    <path id="Fill_1" data-name="Fill 1" d="M0,9.637.789,8.05C1.579,6.349,3.721,3.4,8.8,3.4a17.1,17.1,0,0,1,5.751,1.02,14.707,14.707,0,0,0,3.045.68A2.445,2.445,0,0,0,19.846,4.2a3.276,3.276,0,0,0,.564-2.268L20.3,0l1.691.794a6.962,6.962,0,0,1,3.157,2.835,7.441,7.441,0,0,1,.9,5.1l-.113,1.02L0,9.637" transform="translate(1.908 1.038)" fill="#fde9da"/>
    <path id="Fill_2" data-name="Fill 2" d="M4.059,32.087,0,0H23L18.944,32.087H4.059" transform="translate(3.487 28.59)" fill="#c69a80"/>
    <g id="Group_6" data-name="Group 6">
      <path id="Clip_4-2" data-name="Clip 4" d="M0,0H38.472V61.7H0Z" fill="none"/>
      <g id="Group_6-2" data-name="Group 6" clip-path="url(#clip-path)">
        <path id="Fill_3" data-name="Fill 3" d="M2.255,17.914,0,0H27.514L25.258,17.914h-23" transform="translate(1.232 10.675)" fill="#c69a80"/>
        <path id="Fill_5" data-name="Fill 5" d="M22.327,61.7H7.442a1.207,1.207,0,0,1-1.128-1.021L0,10.675v-.113A1.07,1.07,0,0,1,1.127,9.429,9.515,9.515,0,0,1,4,5.375a10.11,10.11,0,0,1,6.6-2.183,23.1,23.1,0,0,1,6.2,1.134,6.653,6.653,0,0,0,2.594.567,1.514,1.514,0,0,0,.3.029,1.679,1.679,0,0,0,1.168-.483,4.084,4.084,0,0,0,.112-3.061V1.038A1.067,1.067,0,0,1,22.037,0a.9.9,0,0,1,.177.017,9.8,9.8,0,0,1,5.751,3.968,8.422,8.422,0,0,1,1.127,5.67,1.251,1.251,0,0,1,.677,1.133L28.19,23.6a12.247,12.247,0,0,1,2.932.34,9.837,9.837,0,0,1,6.075,4.8,10.437,10.437,0,0,1,.916,7.781,9.831,9.831,0,0,1-3.67,5.394,10.3,10.3,0,0,1-6.1,2,10.456,10.456,0,0,1-2.748-.369L23.454,60.677A1.2,1.2,0,0,1,22.327,61.7ZM4.736,29.724,8.569,59.543H21.424l3.721-29.819Zm23.229-3.855-1.917,15.42a7.029,7.029,0,0,0,2.142.341,7.739,7.739,0,0,0,7.1-7.143,7.912,7.912,0,0,0-7.1-8.617ZM2.481,11.809l2.03,15.646H25.484l2.03-15.646Zm8.232-6.349c-3.3,0-5.695,1.335-7.1,3.968H26.95a6.44,6.44,0,0,0-.79-4.309,6.924,6.924,0,0,0-2.706-2.38,4.087,4.087,0,0,1-.79,2.948,3.765,3.765,0,0,1-2.843,1.375c-.1,0-.21,0-.314-.014a9.057,9.057,0,0,1-3.383-.68A17.933,17.933,0,0,0,10.713,5.461Z" transform="translate(-0.008 0)" fill="#231514"/>
      </g>
    </g>
  </g>
</svg>
