<svg xmlns="http://www.w3.org/2000/svg" width="23.724" height="25.172" viewBox="0 0 23.724 25.172">
  <path id="profile" d="M21.724,19.342v3.107a.724.724,0,0,1-.724.724H.724A.724.724,0,0,1,0,22.448V19.342a2.9,2.9,0,0,1,1.81-2.687l5.431-2.172V10.207A2.172,2.172,0,0,1,6.155,8.328V4.707a4.707,4.707,0,0,1,9.414,0V8.328a2.172,2.172,0,0,1-1.086,1.879v4.276l5.431,2.172A2.9,2.9,0,0,1,21.724,19.342Z" transform="translate(1 1)" fill="none" stroke="#cf9775" stroke-miterlimit="10" stroke-width="2"/>
</svg>
