<svg xmlns="http://www.w3.org/2000/svg" width="30.955" height="45.394" viewBox="0 0 30.955 45.394">
  <g id="Group_14" data-name="Group 14" transform="translate(-76.699 -551.544)">
    <path id="Path_1" data-name="Path 1" d="M2398.381-2541.467l-18.207,4.2v2.568l6.536,31.979h8.168l7.469-34.546Z" transform="translate(-2296 3098.241)" fill="#cf9775"/>
    <g id="Group_Copy" data-name="Group Copy" transform="translate(77.199 552.044)">
      <path id="Fill_7" data-name="Fill 7" d="M22.342,44.394H7.613a.886.886,0,0,1-.827-.752L2.565,13.795h-.91A1.666,1.666,0,0,1,0,12.122V8.109A1.665,1.665,0,0,1,1.655,6.438H4.22V4.431a.815.815,0,0,1,.662-.836L23.914,0h.165a.788.788,0,0,1,.827.836v5.6H28.3a1.665,1.665,0,0,1,1.655,1.672v3.93A1.665,1.665,0,0,1,28.3,13.711h-.91L23.17,43.642A.886.886,0,0,1,22.342,44.394ZM7.282,35.7l.993,6.94H21.68l.91-6.94Zm-1.9-13.961L7.116,33.944H22.839l1.82-12.206ZM4.22,13.711l.91,6.354H24.825l.91-6.354Zm-2.565-5.6v3.93H28.383V8.109Zm21.68-6.27L5.875,5.1V6.438h17.46Z" transform="translate(0 0)" fill="#2d140d" stroke="#2d140d" stroke-miterlimit="10" stroke-width="1"/>
    </g>
  </g>
</svg>
