<svg xmlns="http://www.w3.org/2000/svg" width="17.626" height="25.64" viewBox="0 0 17.626 25.64">
  <g id="Group_15" data-name="Group 15" transform="translate(-76.699 -551.544)">
    <path id="Path_1" data-name="Path 1" d="M2390.28-2541.467l-10.105,2.332v1.425l3.627,17.749h4.533l4.146-19.174Z" transform="translate(-2299.104 3096.137)" fill="#cf9775"/>
    <g id="Group_Copy" data-name="Group Copy" transform="translate(77.199 552.044)">
      <path id="Fill_7" data-name="Fill 7" d="M12.4,24.64H4.225a.492.492,0,0,1-.459-.418L1.424,7.657H.919A.925.925,0,0,1,0,6.728V4.5a.924.924,0,0,1,.919-.928H2.342V2.459A.453.453,0,0,1,2.71,2L13.273,0h.092a.437.437,0,0,1,.459.464V3.573h1.883a.924.924,0,0,1,.919.928V6.682a.924.924,0,0,1-.919.928H15.2L12.86,24.222A.492.492,0,0,1,12.4,24.64ZM4.042,19.814l.551,3.852h7.44l.505-3.852ZM2.985,12.065,3.95,18.84h8.726l1.01-6.775ZM2.342,7.61l.505,3.527H13.778l.505-3.527ZM.919,4.5V6.682H15.753V4.5Zm12.033-3.48L3.261,2.83v.743h9.691Z" transform="translate(0 0)" fill="#2d140d" stroke="#2d140d" stroke-miterlimit="10" stroke-width="1"/>
    </g>
  </g>
</svg>
