<svg xmlns="http://www.w3.org/2000/svg" width="44.417" height="65.345" viewBox="0 0 44.417 65.345">
  <g id="Group_16" data-name="Group 16" transform="translate(-76.699 -551.544)">
    <path id="Path_1" data-name="Path 1" d="M2406.563-2541.467l-26.389,6.09v3.721l9.473,46.35h11.838l10.826-50.071Z" transform="translate(-2292.865 3100.367)" fill="#cf9775"/>
    <g id="Group_Copy" data-name="Group Copy" transform="translate(77.199 552.044)">
      <path id="Fill_7" data-name="Fill 7" d="M32.383,64.345H11.034a1.284,1.284,0,0,1-1.2-1.091L3.718,19.994H2.4A2.414,2.414,0,0,1,0,17.57V11.754A2.414,2.414,0,0,1,2.4,9.331H6.117V6.422A1.182,1.182,0,0,1,7.076,5.21L34.662,0h.24a1.142,1.142,0,0,1,1.2,1.212V9.331h4.917a2.414,2.414,0,0,1,2.4,2.423v5.7a2.414,2.414,0,0,1-2.4,2.423H39.7L33.582,63.254A1.284,1.284,0,0,1,32.383,64.345Zm-21.828-12.6L11.994,61.8h19.43l1.319-10.059ZM7.8,31.506,10.315,49.2H33.1l2.639-17.691ZM6.117,19.873l1.319,9.209H35.981L37.3,19.873ZM2.4,11.754v5.7H41.138v-5.7ZM33.822,2.666,8.515,7.391v1.94H33.822Z" transform="translate(0 0)" fill="#2d140d" stroke="#2d140d" stroke-miterlimit="10" stroke-width="1"/>
    </g>
  </g>
</svg>
