<svg xmlns="http://www.w3.org/2000/svg" width="42.338" height="18" viewBox="0 0 42.338 18">
  <g id="Group_21" data-name="Group 21" transform="translate(-136.3 -715.2)">
    <path id="Path" d="M15,13.125A1.875,1.875,0,0,1,13.125,15H1.875A1.875,1.875,0,0,1,0,13.125V1.875A1.875,1.875,0,0,1,1.875,0h11.25A1.875,1.875,0,0,1,15,1.875Z" transform="translate(162.138 716.7)" fill="none" stroke="#cf9775" stroke-miterlimit="10" stroke-width="3"/>
    <path id="Path-2" data-name="Path" d="M15,1.875v11.25A1.875,1.875,0,0,1,13.125,15H1.875A1.875,1.875,0,0,1,0,13.125V1.875A1.875,1.875,0,0,1,1.875,0h11.25A1.875,1.875,0,0,1,15,1.875Z" transform="translate(137.8 716.7)" fill="none" stroke="#cf9775" stroke-miterlimit="10" stroke-width="3"/>
  </g>
</svg>
